<svg xmlns="http://www.w3.org/2000/svg" width="25.607" height="25.601" viewBox="0 0 25.607 25.601"><path d="M12.8,8.474a6.564,6.564,0,1,0,6.564,6.564A6.553,6.553,0,0,0,12.8,8.474Zm0,10.831a4.267,4.267,0,1,1,4.267-4.267A4.275,4.275,0,0,1,12.8,19.306Zm8.363-11.1a1.531,1.531,0,1,1-1.531-1.531A1.527,1.527,0,0,1,21.164,8.206ZM25.512,9.76A7.576,7.576,0,0,0,23.444,4.4a7.626,7.626,0,0,0-5.364-2.068c-2.114-.12-8.449-.12-10.563,0A7.615,7.615,0,0,0,2.153,4.39,7.6,7.6,0,0,0,.085,9.754c-.12,2.114-.12,8.449,0,10.563a7.576,7.576,0,0,0,2.068,5.364,7.636,7.636,0,0,0,5.364,2.068c2.114.12,8.449.12,10.563,0a7.576,7.576,0,0,0,5.364-2.068,7.626,7.626,0,0,0,2.068-5.364c.12-2.114.12-8.443,0-10.557ZM22.781,22.585a4.32,4.32,0,0,1-2.434,2.434c-1.685.668-5.684.514-7.546.514s-5.867.149-7.546-.514a4.32,4.32,0,0,1-2.434-2.434c-.668-1.685-.514-5.684-.514-7.546s-.149-5.867.514-7.546A4.32,4.32,0,0,1,5.255,5.058c1.685-.668,5.684-.514,7.546-.514s5.867-.149,7.546.514a4.32,4.32,0,0,1,2.434,2.434c.668,1.685.514,5.684.514,7.546S23.449,20.905,22.781,22.585Z" transform="translate(0.005 -2.238)"/></svg>